<mxfile host="app.diagrams.net" modified="2024-11-21T19:28:59.711Z" agent="Mozilla/5.0 (Macintosh; Intel Mac OS X 10_15_7) AppleWebKit/537.36 (KHTML, like Gecko) Chrome/129.0.0.0 Safari/537.36" version="24.2.5" etag="745zEk4T-ss6ypbrkslp" type="github">
  <diagram name="Page-1" id="aNCfaF_k5vk9_ocJTViG">
    <mxGraphModel>
      <root>
        <mxCell id="0" />
        <mxCell id="1" parent="0" />
      </root>
    </mxGraphModel>
  </diagram>
</mxfile>
